<svg width="133" height="40" viewBox="0 0 133 40" fill="none" xmlns="http://www.w3.org/2000/svg">
<path d="M33.5501 5.85781C29.8381 2.08031 24.9027 0 19.6532 0C14.4036 0 9.46822 2.08031 5.75623 5.85781C2.04424 9.63531 0 14.6578 0 20C0 25.3422 2.04431 30.3646 5.75623 34.1422C9.46815 37.9198 14.4036 40 19.6532 40C24.9027 40 29.8381 37.9197 33.5501 34.1422C37.2621 30.3647 39.3064 25.3422 39.3064 20C39.3064 14.6578 37.262 9.63539 33.5501 5.85781Z" fill="#33CC95"/>
<path d="M20.2147 8V33.1429" stroke="white" stroke-width="2" stroke-linecap="round" stroke-linejoin="round"/>
<path d="M25.8299 12.5714H17.4071C16.3646 12.5714 15.3649 12.9929 14.6278 13.743C13.8906 14.4931 13.4765 15.5106 13.4765 16.5714C13.4765 17.6323 13.8906 18.6497 14.6278 19.3999C15.3649 20.15 16.3646 20.5714 17.4071 20.5714H23.0223C24.0647 20.5714 25.0646 20.9929 25.8017 21.743C26.5389 22.4932 26.953 23.5106 26.953 24.5714C26.953 25.6323 26.5389 26.6497 25.8017 27.3999C25.0646 28.15 24.0647 28.5714 23.0223 28.5714H13.4765" stroke="white" stroke-width="2" stroke-linecap="round" stroke-linejoin="round"/>
<g filter="url(#filter0_b)">
<path d="M52.0401 21.0561C49.4842 20.4234 47.6217 19.6479 46.4524 18.7299C45.2935 17.803 44.714 16.6622 44.714 15.3075C44.714 13.7745 45.4228 12.5089 46.8404 11.5107C48.2684 10.5036 50.1206 10 52.3971 10C53.9492 10 55.3307 10.2585 56.5413 10.7754C57.7624 11.2923 58.704 12.0053 59.3662 12.9144C60.0388 13.8235 60.3751 14.8173 60.3751 15.8957H57.3795C57.3795 14.7193 56.9449 13.7968 56.0757 13.1283C55.2065 12.451 53.9803 12.1123 52.3971 12.1123C50.9277 12.1123 49.7792 12.393 48.9513 12.9545C48.1339 13.5071 47.7251 14.2781 47.7251 15.2674C47.7251 16.0606 48.1132 16.7335 48.8893 17.2861C49.6757 17.8298 51.0053 18.3289 52.8783 18.7834C54.7615 19.238 56.2309 19.7415 57.2864 20.2941C58.3522 20.8378 59.1386 21.475 59.6456 22.2059C60.163 22.9367 60.4217 23.7968 60.4217 24.7861C60.4217 26.3636 59.7077 27.6292 58.2797 28.5829C56.8518 29.5276 54.9426 30 52.5523 30C51.0002 30 49.5515 29.746 48.2063 29.238C46.8611 28.721 45.8212 28.0169 45.0865 27.1257C44.3622 26.2344 44 25.2228 44 24.0909H46.9956C46.9956 25.2674 47.4975 26.1988 48.5012 26.885C49.5153 27.5624 50.8657 27.9011 52.5523 27.9011C54.1252 27.9011 55.3307 27.6248 56.1688 27.0722C57.007 26.5196 57.4261 25.7665 57.4261 24.8128C57.4261 23.8592 57.038 23.1239 56.2619 22.607C55.4859 22.0811 54.0786 21.5642 52.0401 21.0561Z" fill="white"/>
<path d="M68.1048 10.2674L75.493 26.1497L82.8812 10.2674H86.7461V29.7326H83.766V22.1524L84.0453 13.9706L76.6261 29.7326H74.3444L66.9407 14.0107L67.2356 22.1524V29.7326H64.2555V10.2674H68.1048Z" fill="white"/>
<path d="M107.157 12.3797H99.8927V29.7326H96.9281V12.3797H89.6796V10.2674H107.157V12.3797Z" fill="white"/>
<path d="M114.359 10.2674L121.747 26.1497L129.135 10.2674H133V29.7326H130.02V22.1524L130.299 13.9706L122.88 29.7326H120.598L113.195 14.0107L113.49 22.1524V29.7326H110.509V10.2674H114.359Z" fill="white"/>
</g>
<defs>
<filter id="filter0_b" x="40" y="6" width="97" height="28" filterUnits="userSpaceOnUse" color-interpolation-filters="sRGB">
<feFlood flood-opacity="0" result="BackgroundImageFix"/>
<feGaussianBlur in="BackgroundImage" stdDeviation="2"/>
<feComposite in2="SourceAlpha" operator="in" result="effect1_backgroundBlur"/>
<feBlend mode="normal" in="SourceGraphic" in2="effect1_backgroundBlur" result="shape"/>
</filter>
</defs>
</svg>
